<?xml version="1.0" standalone="no"?>
<!DOCTYPE svg PUBLIC "-//W3C//DTD SVG 20010904//EN"
 "http://www.w3.org/TR/2001/REC-SVG-20010904/DTD/svg10.dtd">
<svg version="1.0" xmlns="http://www.w3.org/2000/svg"
 width="32.000000pt" height="32.000000pt" viewBox="0 0 32.000000 32.000000"
 preserveAspectRatio="xMidYMid meet">

<g transform="translate(0.000000,32.000000) scale(0.100000,-0.100000)"
fill="#000000" stroke="none">
<path d="M135 205 c0 -28 4 -45 12 -45 14 0 27 -36 18 -50 -7 -12 12 -40 27
-40 6 0 6 6 -1 14 -6 7 -9 21 -5 29 3 9 -1 26 -10 39 -9 12 -16 39 -16 60 0
24 -5 38 -12 38 -9 0 -13 -16 -13 -45z"/>
<path d="M193 238 c3 -9 -1 -22 -8 -28 -11 -9 -12 -17 -4 -31 5 -10 14 -19 20
-19 6 0 6 7 -1 20 -6 11 -7 20 -1 20 17 0 20 29 4 42 -14 11 -16 11 -10 -4z"/>
<path d="M94 230 c2 -16 20 -14 24 2 3 10 2 10 -6 -1 -7 -9 -11 -10 -15 -2 -4
7 -5 8 -3 1z"/>
<path d="M127 143 c-4 -3 -7 -21 -7 -40 0 -23 5 -33 15 -33 12 0 14 8 9 38 -7
42 -8 45 -17 35z"/>
<path d="M214 95 c0 -14 5 -25 10 -25 4 0 6 9 3 20 -3 10 0 21 7 24 6 2 4 5
-5 5 -12 1 -16 -7 -15 -24z"/>
<path d="M80 89 c0 -5 5 -7 10 -4 6 3 10 8 10 11 0 2 -4 4 -10 4 -5 0 -10 -5
-10 -11z"/>
</g>
</svg>
